<mxfile host="app.diagrams.net" agent="Mozilla/5.0 (X11; Linux x86_64; rv:137.0) Gecko/20100101 Firefox/137.0" version="26.2.13">
  <diagram name="Page-1" id="bFgusKjuAZr6_SeVdxVJ">
    <mxGraphModel dx="1372" dy="800" grid="1" gridSize="10" guides="1" tooltips="1" connect="1" arrows="1" fold="1" page="1" pageScale="1" pageWidth="850" pageHeight="1100" math="0" shadow="0">
      <root>
        <mxCell id="0" />
        <mxCell id="1" parent="0" />
        <mxCell id="CVcsU5q7l-2o3ZHZ9_AM-1" value="" style="outlineConnect=0;dashed=0;verticalLabelPosition=bottom;verticalAlign=top;align=center;html=1;shape=mxgraph.aws3.ec2;fillColor=#F58534;gradientColor=none;" vertex="1" parent="1">
          <mxGeometry x="550" y="405" width="70" height="77" as="geometry" />
        </mxCell>
        <mxCell id="CVcsU5q7l-2o3ZHZ9_AM-2" value="&lt;div&gt;EC2 instance&lt;/div&gt;&lt;div&gt;&lt;br&gt;&lt;/div&gt;" style="text;html=1;align=center;verticalAlign=middle;whiteSpace=wrap;rounded=0;" vertex="1" parent="1">
          <mxGeometry x="550" y="490" width="60" height="30" as="geometry" />
        </mxCell>
        <mxCell id="CVcsU5q7l-2o3ZHZ9_AM-3" value="" style="shape=image;verticalLabelPosition=bottom;labelBackgroundColor=default;verticalAlign=top;aspect=fixed;imageAspect=0;image=data:image/png,iVBORw0KGgoAAAANSUhEUgAAANwAAABaCAYAAADTszhEAAAABHNCSVQICAgIfAhkiAAAABl0RVh0U29mdHdhcmUAZ25vbWUtc2NyZWVuc2hvdO8Dvz4AAAAqdEVYdENyZWF0aW9uIFRpbWUARnJpIDE4IEFwciAyMDI1IDE2OjQxOjI2ICswM5oqFToAACAASURBVHic7Z15eFTnfe8/Z5ldI400EtpAQguL2IkQYGyMMQ62wcbL7ZPUaZylN37q5LlJn/a28U2e2mnTp71JmzRpncTXpE7rEu+7cRwwYLAwILHvCAkE2jXSaDbNfrb7h5gJAsyOcNLz+Qf76Mw57zlzvuf9vb9tBMMwDExMTMYE8WYPwMTkvxOm4ExMxhBTcCYmY4gpOBOTMcQUnInJGGIKzsRkDDEFZ2IyhpiCMzEZQ0zBmZiMIabgTEzGEFNwJiZjiCk4E5MxxBScickYYgrOxGQMMQVnYjKGmIIzMRlDTMGZmIwhpuBMTMYQeSxPpus6mqahaRqGroMgIAgCkiQhyzKCIIzlcExMxpwbLjjDMIiEw/gGBujr7aWnpxe/3088HkMAHA4nhUWFlI8fT1lpGcXFxbhz3ab4TP4gEW5UEyHDMBjyD7Fnzx727NrF0aNHGPAN4HbZGV82jly3E0EQSSTTDAwMEYhEyS8oZPacOSxdupS59Z8xRWfyB8cNEVwylWL3zp289eZb9HR309Pdjaqk+OySBSy7fQHjy4txOmyAQDKVIhyJ0u/zs2vfEXbuO4psc/GlL3+Zu5Z/Frfbfb2HZ2Jy07iuglMVhdMdHbz95lscOXKEmuoqFEUhEfFzx6I5zJ87fURohoahqeiaCoYOGOiGQSyeoqPbx3sbtrOl+TCPf+MbrFi5kgKv15ztTP4guG6Ciw4Ps337dj7cuAmH04HX62Wwvw+v28KyxfVMKCtCQkVT06DrABiGft5xdMMgEomzdsN2dh7uYPnKB1j1wCpy8/KuxzBNTG4q1yUskE6n2b1rN++9+y7jiseRX1BAx6l2igvs3L/8VirLChG0JGo6gaGpGIZ+QbEBiIJAXq6Lz91/B7OmTODDDevZunXr9RimiclN55oFZxgG7e3tNDY2YrfbMQyDnc07yXVK3H3HAsZ5czHUJLqaxgDSmkEqrWYmuQsjCEiOHObMmo6mxHnjtdcYHh5Gv+iHTEw+/VxTWMAwDIKBIFs/amTLli24HHZOnDxJIhYjb+ZESgo96EocXVPQEOnxRWjed4xELMpdt86irNh7/kEFAUXR2LpnP2+t3cSp7j5E2c6699/n/lWrsDsc1zJkE5ObyjUJLh6P85vfvMe777zDhPJyZs2ZTU6Om0OHDhGPJ4lFI9gkA0SJoy1dbGjcSTwWw5PrIpFIYRjG+c4Qw0ASBcZ5HDz+6H2cONXD1l1HeO+933DPihXYr2XAJiY3mWsSnK/fx+6duygtLaV+Xj0+3wC9vf34fAOUecpBVxEkkWg8xf5DLZQX53PnrUvJc7uQJekTPY+SKDBr6kQwYHL1eIrHFfD08+8TiYRxOp1IknQtwzYxuWlck+CCoSDD0WHKysro6+snEAiOpGqJAk6bjEUSQYBkIsn0KZWUjsunqOB33kZNNxAFgQvpzjBGPJaiKDCxvJip1aX4+vrxegtNwZn83nLVglMUhUBgiEQigabphMMBBEFA13WcNhmvx4ksCeiGQYEnh/w85+9mNEFEECX6+324c+zk5jgBSKUVFEXD6bAhigKqajAYiBCNxqiuLMU34GOKVnddLtzE5GZwVV7KZDLJ3j17WfP8GiKhMOl0mkw4T9d1nA4rnlwXmQCfIIAoilnBibIFyebCF4zTPxhE13UMIByJcrClnWQyDYDV7kDRRQ62nCbf7aL95EkS8QTmT9qZ/L5yxYJLpVLs3bOXZ3/6U4K7d5EKh+ju6uL06VP09vQQj8exyjI2q+UTj5FOpUjGY7hdNvYePkEgFAXDQBRFOrt9dPcNAnDwSCuNO/bQvPcoiWSSjR9sYMeO7aRSqau/YhOTm8gVCU7XdQ4fOsya1asxDh3gYaedZDjMcHCQyhIPgpagu6uTUGSYWCJ94RMKAs17jvB/f/qf/Py519j08V5iiSQALqeD4sJ83nh/KylF4XRnN339PmZPq8FhtRI4dYpXX3yJ5qbma79yE5ObwBWt4Xp7e3nvrbdQDh7kUZeT5pRC3fTJfPbeJXg8uYTDw2zY3ExX7yD+UPSCpp9uGNTVTiCRShEIDjNxQgklRfkIgoDDbqVucgV7D5/g+Vc+4N5l87l94Rw0TWPv/hY+YxEZOnqIN158gZqaGsZPGH/dbsR/F879TgzDQNf1EbP+jJVxPWoTFUVB0zRkWUaWx7Ts8lPNZd8JRVH46MPNdH+8lRWSQJEs4RMEGupnkk6nWfPS20ypraS8OI+hQABRGPFCSuL5X1y+x82ShbPRdR1ZkpCk3020hQV5/NHKxfx49esUF3m4feEsLBaZdEqhSpaYZhh8fGA/v3ruOf76iW9jt9vNxObLRFVVOjo6OH36NKlUilQqRTKZJJlMEovFSCaTlJaWsmLFCvLz86/qHIqicPz4cZqamggEApSWlnLrrbdSUVFhCo/LFJyqqvT29rLhjTeYHYsyx2bBp6pgtVBSXIAr10n9jFpqJpYRj6dYduscSsd5Lyg2AEEQsMgSIJ21bUR0siRQXuLl8Ufv443fbCXH5WD6lIkMDgUpEEUmWi1Ekwk2N37E1lsWsuSOO7DZbNd+J86g6zqqqmbTyDJv/QyGYYzaJooioij+XoQqUqkUjY2NvPDCC7S3txOPx0mlUiMV+Geua+HChSxcuPCqBKdpGk1NTfzoRz9i+/btxONxXC4X99xzD9/5zneoqzM9zJcluHA4zOuvvIrY3cUiWULEQDN03JpGKBShrKyQqbWV1M+sJa1ouJy2K5p1DEMHyYYogKEpyLLMpInlePNziUTjJBJpTnX0USuJuHWdGVYL7UODvPraa8yeM4dx48Zdl1lOVVXa29v56KOPiEaj2e3CmVYQGXMs868gCHi9XhoaGpg6deo1n/9G43A4uPfee5k0aRIvv/wyb7zxBuFwOHs9kiSN8jhfKYFAgLVr17Jx40bi8Tgwko30yiuvsGDBAsaPH//fvr7xkoLTNI3u7m7eeuklviIZeGWZhKHjFARKEymOHm5lzuxJzJ5WhcVy5fa6bhgjguruoaw4H4ssEQgN03qyk1RaobqiFE3X6OvsJ18YcbqMk2GBJvLC8Vb279nDHcuWXZdZTtM0Ojo6eP755zl16hShUAhFUVBVNZuGlpnRLBYLXq+XmTNnUlRU9HshOFEUKSkpobi4mDlz5jA0NMRbb7113by+4XAYn8+HoiijtqfTabq6uhgeHjYFd6kdwuEwu5ub0f1+PjO+BAMdzTCwigJVksCh4+18uGUndy2dh66FiSZSjC8pIs996STjdFpBNwwEAT7asY88txOLLBOJxhFFgVvqpyFJEgN9ftSBIax5LsQzM9l4WaJ6OMTenTtpWLjwugjOarUyf/58fvKTn9DS0sL69etZt24dQ0NDwMjMpmka+fn5LF++nIcffpjJkydTWVl5zeceSwRBwOVyUV1dTU5OznUTnMfjoaKiAqfTSTgczm7Pzc2lpqaG3Nzc63Ke32cuKTi/38+B7TtY4s7BLQpoZ5kbxbLEjHicpvXbOHD4OFitzJw2hYfuHTcS7f4E00SULGiaysnOPvoHAjiddrweN2lFwWqVqaksZSgUYee+YxQU5KGEo9QYBgIGIAACuRLM0HUOtLbS2dFBQUHBNd8MQRDIy8ujoaGBefPmMXnyZE6fPk1TUxOapmX3q6io4Ktf/Sp33XXXNZ/zZmK1WketT6+V/Px8Vq5cycmTJ2lsbCSZTJKTk8OKFStYsmQJLpfrup3r95WLCk5VVfp6++hrO8H/ynGiGcYowVkFgfk2C0Vpha3HO2jPzcG7+BY8Hg+CnsLgzHpHEBiZl4SRWjerjRNtPaTTCl29A+w91MZgIIKiqowvLaKs2Mv+I20su62eyvJiPtxzlNucdkR+t06zIjDeKrOrv5/W48eZM3fudb0xmfVZQUEBkiSNEpzNZrsuAv9DQ5Ik5s2bx/e//3127tzJ4OAglZWVzJ8/n5KSEtObzCUEl0gk6Oo4jTUZZ4rTRkBLc+6c5RAEZthkPLLIm4pKKDyMbghIgoShq/iDETAM8vPcyLIEBmjpNIl4Et9gkPqZk2mYPZX+wQDD0QR2mwVvQR7Lb69nfGkRO5oOku72MdlmOe/cblHAFQ7S3dF54VKfayTjLDEflMtHlmVqa2upra292UP5VHJRwcXjcXydXRRhYMUAQ4DzHvuRLXmiSHE8SXdHD6FwlOICF4auIksiB462UzqugNqqciRRRNcUptaMJxSOsGHrHgwDcpx2HA4bguAiN8fB5OrxHGnt4GDTAWZqKpIgo53z3DtFgbxEikGfj+Hh4U/lGkHXdcLhMIFAgHg8jq7rSJJETk4OBQUFuFyuTwwpZILSmea5qqqiqiqCIJCTk5N1UCUSCQKBAJFIBE3TcDqdFBUVkZOTc80vi2zj3k9aHpwJiWRM08x4M+EVVVVRFAWXy3XBmOm5+yuKMpKP63Ris414uxVFIRgMEgwGURQFm82Gx+PJWh+XwjAMhoeHCQaDxONxVFVFlmXcbjcejweHw8HAwADpdJri4mLs9htXdXlRwSVTKUIDPgoxSJ7prnUhDAQcAtRZJXZ193K6s5fy4uloagpPXg6ePDfHTnRischUV5QCBpIkMmtaDVarhdaTXSRSKXRdx2a14M5xkVZ01m/eRf/JLu4UhfPEBmBFJFeA7lAI/6D/UyU4wzDo7Oxk27Zt7N27l/b29uwDY7VaKSwspLa2loaGBpYuXUpeXl72YRweHubNN98kkUgQj8dJJpOk0+lskLqsrIwHH3yQyspKjhw5wocffsjBgwezHsL8/Hzq6uq45557aGhouGqHkqIoHD58mA8//JBYLHbBa5wwYQLz588nEolw+PBhEokEyWQyG1hPpVIkEgnuv/9+Fi9enF3Hbdiwgc7OTqLRaHb/zL92u53ly5ezcOFCent72bx5M7t27aKjo4NkMonT6aS6upolS5Zw1113kZube8EXi67r+P1+tm/fzq5du2hvb8fv95NOp7HZbBQXF1NVVUV1dTUHDx5ElmW+/vWvU1VVdVX363K4qOCUdJpYKEQJAgl0jKzT4nwEoECSiPb0s2vvEWbW1eKwWtDVNNMnVRKLJdi5vwWLJFNRXoQBuF0OPjNzErOn1aDpOgIgSSLptMqra7ewcfs+jHCU3Q4rD7rs6OecWxbAhYAajxMKha7PHbkOKIrCRx99xOrVq9m2bRuBQID6+nruueceZFlmzZo1bN++HUmSKC8v54477uB73/seJSUliKLI8PAw//qv/0p3dzeJRGJU6pVhGNTX1zN9+nRaW1v553/+Zw4dOkQ0Gs0G6wVBYN26dWzbto2nnnqKO+6446pnukgkQlNTE42NjUQikez2jIPp4YcfZuLEiTQ2NrJ69Wqi0Wh2xoLfJQqUl5czb968rODeffdd3nvvPQKBQDbRIDOLFhcXU1paisPh4Omnn2bz5s0MDg6OWkdbrVbWr19PZ2cnf/qnf0reBbq6tbS08Oyzz7J27Vp8Ph9Op5PFixdzyy23oGkaH3/8MZs2bULXdZLJJLNmzeJLX/rSVd2ny+WigtM0HS2tYMNA0Q2MC4jNABTDoEPV+CCRpjml0tG0n0mTqlh262wEBCwWiYY5k0kpad7+4GNuXzCL2qpy7DYrkigiCiKSrhNPpDhxupfX39/Kh9v2Y6+YhmqP8ZuBDlLRBPc6HbhEITsKAbCIYKhKNtB6s0mn07z22mv8+Mc/5tChQ6iqysyZM3niiSf47Gc/i6IoFBQU8A//8A90dnZy4sQJOjs7icfjPPXUU0yaNImioiJee+011q1bxy9+8QuOHz8+6mELBoO89957bN68mXQ6zcSJE4nFYnR1dZFIJIARh1dzczPPP/88ZWVlTJky5YqvRZZlFixYQEVFBZs2beKxxx7DZrNRWVnJvffeyyOPPJINLdTV1VFfX88vf/lLNm3aRDKZHHWsc83SJ598kuXLl/Ozn/2MLVu2kE7/Ltk9FovR2trKq6++Sm9vLx6Ph7y8PHp6erLNpBKJBG1tbbz44otMmzaN5cuXj3qp9PT08Oyzz/KrX/2KaDSKIAg89thjfOMb36CiogLDMHjkkUd4/fXX+fnPf47P5yMWi6Gq6hXfpyu6pxf7o27o6LqGyEiA+tzZTTGgV9NoTqnsNEQC+eXYPUUMDgdY8/pvGfAPMXNyBZ4cOxZZxG61EgxG+MnqN6ibNIEZU6soLPBgGOAPhDh0rJ29h9ro8Q1hESREwD1hMnGbnXdPHSFhJPmsw0qJLJKRnQRwxv6/2ei6TmNjI8888wwHDhzIvuXvvvtu5s+fj91ux2q1snLlSv7zP/+Trq4uDMMglUrx5ptvMm/ePL74xS9SWFhITU0Nf/RHf8TAwABPP/00wWAwe57Tp0/T2NjI5z//eR544AGKi4vp7+9n9erVPP/889lskVQqxaZNm3jwwQeZPHnyFc9ygiAgyzLRaJTt27dTVFTE/fffz+c//3kWLVqE0+nMrt3sdjt33303NpuNwcFBmpqaLnrscePGsXTpUhKJBK2trZw+fTr7t1AoxKuvvsqqVav47ne/y4wZM9A0jbVr1/LDH/6Q3t7e7Ix4/Phxdu7cyZ133onFMlISZhgG69at4ze/+U02Y8hqtVJXV0dlZWXWxK6oqODRRx/F6XTyne98B1VVs/fuRjnKLio4SRQRJInUOQtm3YBhQ2dfSuEjxaAnrwipvJa8wjJkq51EyM/ptv2s+2gvUUUmL8dBX08XvfsPYxkMICRTfHi6m8bt+5lYXozHk4vNIjHo8yOGhrnbYmG2zcpa32l8NifOslrSVicfnTqIPalwv9OK40yepmYAooT1IvV3Y0VPTw/vvPNOVmyCIGC1WpkyZUo2jCCKIqWlpRQWFiLLcjYrI5lMsnHjRu666y4KCwuBkYBxVVXVeWuwwsJC/viP/5g///M/zzpdSkpKWLlyJdu2baOlpSVr1vX29tLb25tdt1wJmqZx9OhRVq9eTXNzM9/97ne5//77mTBhAlarddS+giBgsViorKykpKTkso7vcDiorq7G6XSO2u50Olm4cCHf/va3qaioyArpvvvuY+PGjQwNDWVn8mg0SldXF5FIBK/Xm72XR44coaOjI3vMTFJ1d3c3lZWV2YqIwsJCHnroIXbu3Mnx48dHZRXdCC4uOElCslqJGgaiIaALkDJ0TisamxIKOxGRJ0wlZ+JUZIdrZKqPRUgmE4gFJfQnI5zo7OeuO++guz/EjITCnXYbqt3GkVSajckUQ4NBxnvzccgy8UicR2026q0yIjqnkyq+4AAJiwNXSSVxLUVn93GSBjgYMWfTgGCVz/vSxhrDMNi/fz8bNmzIPgyCIJCbm0teXh6yLI9aY+Xl5WGxWLKCMwyDtrY2fD4fdXV1SGeaLF0oVW7cuHEsWLBglJNIkiRKS0uZMGECra2tWRNU13WGh4evSnAnTpzgpz/9KYcOHeJv/uZveOihhy4ZLL+SRO7M9Z37cLtcLhYvXkx5efkoYbvdbqqqqkbdE8MwiEajRKPRrOA0Tct6IzPous6LL75IIBDgT/7kT5g5cya5ubnYbDa8Xi9/+Zd/yRtvvHHBteD15KKCs1qt5BTk40dAFEZMyL0plRdjKQZceXiqZ5JTWoWOQWI4RDIaQUuPpAmJFhuqXEhzu4+m/T9DjIb4ilVEtFuQDIO5Vpk6q4WtiSQ7mg5Qa5HwAMVOB6Kgk9Z18gUBUVNQUnEiQ2ksuk6OIGA98/2ohkFU17E4c666nOR6kUwmaWlpobW1dVSSs2EYHDt2jI0bN2bd3oZh4PP5AEY9bKlUilAohKZpF31oP+mhtlqtF3RpZ8ZxuWRyH//+7/+e9957j5ycHDo6OpBl+ZKZKddrZrBYLOcdSxTFbKjgbDKhhQw2m42ioiKcTueotb3P52PNmjW88sorTJ8+PesJnTZtGpMmTeJ73/veDY+5XlRwNpuNgnElHAUMQSCl63SpGiFnLoXTF2L3lpIIB0nHh1GVNOeGDQRBQHblodtdGFIfWiqIfmYfjZGHoFCSyJdEyuw2jqYVBjQVNyMVCboAiBIggK4jRYaokEayTABShkFEEHHne/CeMcOuBE3TSCQSpFIpZFnG5XJddc3W8PAwPp9v1IOdif+sWbOGd999d5QnLp1OU1lZOWr/4uJiHDe50W0ikWD37t289dZbfPDBB8TjcaLRKM899xwNDQ0sWrTopo/xUlgsFhYsWMDs2bNpbm4e1bE745Hcs2cP+/btw+v1Ul9fz6pVq7j33nsZP378Da3bu+iRnU4nJZUVbJMkhjUdWQCvKGATBETZgqFrpGKRkR/ouAiiJKM53US0OEk9iU0YCaDrgC4IREtL6amuJscwONDZydFAgDyni6PRBCnJcqY0RseRiDJRFsnUq8Z1g7DNxpSSkivO09M0jUOHDrFlyxZaW1spKipi6dKl1NfXX1VGezqdzpqS2esWRTweD1/72te49dZbL3kMq9V6nsk0lhiGQUdHBz/72c/Ys2dP9mWQqRj50Y9+xD/90z9RV1f3qS8mvf322zl16hR+v5/29vZRM2AGXdcZHBxk/fr17Nq1i7a2Nh5//HFqa2uva47p2Vz0rjkcDionVkFODi3hEHU2mWJZoiCZYKC3ncJpC5BkC5qq8ElB8QyC3UlHVGZI1Zkgi4R0gz2KTpPNyaRbFrHqwQfxDw1x+mQ7GzZvxTvnFgZbDqP09IKugZamUE0yzmrN5lSGdZ1EgZeKiVVXbAq0tbXxgx/8gPXr1xOPx5FlmQ0bNvDkk0+ybNmyUWuHc82xTJnO2UiSlF3cn/05wzCora3ltttuu6Lx3QwyM0F5eTmKonDkyJFRTp2mpiZef/11vvnNb2YdO59WcnNz+cIXvoDb7eaFF15gz549hEKhC5rWhmEwNDTEyy+/TEVFBV/5ylfweDw3ZFwXlbEkSRSXFFMxeSpbYgk0w2CcJDIVjcSQDz2dRpTkM1n8F8AwyAhRlCyckm3sUmFTMs0risjuqXOxL7mX5j37GY5GcdjtVE+ZwriaqZROn0v5jM9gdbnQdQ0hNsxUScR5RlhpDDpVDVtpGZOnXnmM6Z133mH79u2EQiHS6TTxeJyWlpZRxaeGYVww3GCxWC7oWcvPzz9P+OFwmFAo9KkIW1wKURSprq7miSee4Ic//CFlZWWjXiyhUIh33nmHzZs3f6p/WMXv93P48GFUVeXRRx/l6aef5l/+5V94/PHHueWWWygqKrrgWjAQCLBt27YbmkRxyXnT6/VSf+ut7E+m8BsGeaJInUXGkoqTDPsRRPGCAXFdTWOkEwiGMRIzEwSGnXn81uLiZVWkv2Exxcvup3T2fNwVk9m6dRsIAgYCgs2BpqTpPdmKJlrAMBDCg0y3SlgEEDAIaRqHRInaqXWUj7/yZkJtbW2jYlswYjplMiVgxJV89v/DSDDY6/VSXFw86rMul4uKigo8Hk/2Ic3EwlpaWvD7/Rcdj2EY9Pb2Eo1euPnSWJAJY3i9Xu68804eeeQRioqKRu3T0tLCSy+9xLFjx27KGC+HgwcP8o//+I+8+eabpFIppk6dype+9CW+//3v88wzz/DMM8/wta99jdra2lFWiaqqBAKBUUH4680lBed2u5lTX09BVRX7VAMNg1JZpEbQSQYHEEUJ4UK9S3QNURCwWG0Imbek3UnYlY8wrpySutm4CouR7U5qb13GviPHaDl2jEBgCMlqo/voQYYG/Wg6yEqS4kSEclHAIkDKgHZFozevgPqFC69qEX92Y9oMubm5zJgxA6fTiWEYDAwMMDQ0NOptXlRUxJw5c87L25QkienTp9PQ0HCeB3Hz5s0cPXr0okLasWMHP/7xj9m8efNN77uZcdd/4Qtf4JZbbhl1f1OpFB9//DHPPffcqFSvTxPJZJLW1lbefvttDh8+DIx834WFhcyaNYtVq1bx5JNP8vWvf50JEyZkPyeK4nWvETyXSx5ZkiTGjx/PF778JQ7o0K1oeESRORLEwn4EaaRt+bkYgogoWxBla7ZBEIKAKIlEgkMc2/I+vqMHMFQFR4EXV9F4+n2DhINhkGWO7thKWh3JlrfGI8y3yNjO1NX1qTrbDJHaWbOYMWvmeWuny6GmpmaUnS5JEg899BDLli3D6XSi63q289TZPT9mzpzJihUrzhOrIAjMmDGDFStWZONBGQ4dOsSzzz7Lvn37zhNdIpGgsbGRb3/72zQ2NqLr+iW/8EwVwSf97VzO9o5ebN/MmjOzfdKkSTzyyCOMP8eC8Pv9vPPOO7zxxhvnjeOTQhCfVHHwSS+hCzk5LsbZx7FarVgsFpqamnjxxRfp7OzM/i0ToC8uLmbx4sWUlpZm/2az2aipqbmhhbKXJeXcvFxW3ncfrkmT2X3m/k4UBYREFFQVSTzf9yIIIoJs+d3sdmab7MqHwnJ6enppevMFdr/yKwaO7KOgsoZDR4+zs2kHbXubSYkWDEHEUFLYoiGm2SR2pdI8G02xWtU5ZXPgznFdtfl1zz33ZAPMAJ/73Od47LHHqKqqIpFIsH//fl555ZWsKSiKIrW1tXzxi1/8xO5TTqeThx9+mIceemhUaUw6nWbt2rV861vf4t/+7d/YsWMHx44do7GxkR/84Af82Z/9GSdPnuTLX/4yixYtygbEg8Eg3d3d5/UICQaDHD16lFgsls0oSaVS+P1+gsHgeffk5MmT9Pb2kjpTkZFKpYhEIvT19Y3KedR1nWAwSGdnJ7FYDIvFwsKFC3nwwQfP61zW0dHBL3/5SzZv3kwwGMxm+3d3d2dbUpzNnj17aGlpyZYoZcz3rq6u8/IuE4kEe/fuxe/3Z+OWqqoSiUTw+/3nibG7u5ujR49mj50R3PDwMM8//zw///nPOXHiBKlUKvtC0HWdgYGBUVUQlZWVF3xhXk+kv/3bv/3bS+0k319uugAACghJREFUCAI2mw3RamH3kaMI0WHGiRL7dRC8JRiiNCo0oCspdCWJLFmQLDY0TUXXVcAAQ0cQJUSbC9UwCPh66djfRKi3i8GeLnp7egkOx0CyoqdiqBE/WjREvyhwvLCYwvoGFq96gDkN8zh29Cg2m43q6uordlN7vV6sVit9fX34/X4qKirIycnh1KlTvP/++/zd3/0dbW1t6LqO2+1m3rx5/MVf/AUrV67E7XZ/olc0NzeXKVOm4HK58Pv9WVGoqkpPTw/btm3j7bff5te//jWvvvoqe/fuZcKECTzxxBM8+OCDFBYWEo/H+e1vf8tLL73E22+/TX9//8iXJUlIkkQikaClpYVwOExRURGpVIp169bxX//1X+zYsQNFUbL7SpJEe3s7LS0tKIqC3W5n48aNPPvss3zwwQeEQqHsfqIoEovFOHDgAAMDA1RUVFBaWorH42HPnj34/f7svoZhMDg4yN69e+nu7qa3t5ctW7awZs0adu/ena37y5juXV1dtLe3E4lEmDRpEgcPHuTll1/m17/+NSdPnsymU0mShKqqdHV14fP5cLlcuN1udu7cyX/8x3+wfv16IpFItlWhJEkEAgHa2trw+/0UFRWhKEq2usHpdLJz504OHz6crYnr7u5m9+7dPPfccxw8eBCLxcKMGTP4q7/6K+68805ycnKu6Fm6Ei77KZVlmUW33UZ7WxtNr79GKpWkSBQYUlII9pzf5Z8ZBlo8QjowgOHMQXfnjwTFtRSGqiKJAhZJQjA0dENDkQUwJEK+HtLpNJpuIKTSGKEhnA47Vgzyy0q54388zOSpdXjyPZSUlpJzpqDx0MGD3LJo0SjT4HKwWCzcd999lJaW8vbbb9PU1MRPfvIT4vE4kUgEXdcpKSlh5syZLFmyhGXLllFXV4fVar1oCEIQBGpqavjmN7/JbbfdxubNm2lqauLkyZPZEppUKoXb7Wbu3LksWbKEpUuXUldXly3QzDRsTSaT1NfXM2fOnOyxzyYzU8myTH9/P3l5eaxateo8s9QwDCRJIhgMEg6H6ezsRNd1lixZcsG8QUEQ6Ovry2bZ19XV8dRTT/H666+PcgjByMyfTCZpb28nFotRVlbGqlWrRh0zs6/VaiUSiZBKpfD5fAwNDVFVVcXEiRPPM0UzWSWRSIRkMpmdjW6//fZsudLZFfmiKBKNRgmHw7jdbqZNm0ZDQwNz587lwIEDWcFmOkv39fUhiiILFixg0aJFLF++nBkzZtzwviuCcQU2ma7rtB4/zvP//u98/O675NkcBGtnI3rGEQ8FEAQRLRVHCfShRcNYJYGyslImTqykauJESktL8RZ6yc8vwOl0IMsyFlkmEAhw+tQpNmz8kOO9QXRHLv7D2/na//xTnE4H/f39fPv/PMHad94lv6CAhvnz8Xq97N+/nxdfeIGHHn74sgLLn3RNkUiEQCBAT08Pfr8fVVVxuVxMmDABr9dLfn7+VXV4zuT0xeNxhoeHGRoaIhaLIcsyJSUleDyebD7fuQ9oJBLJJtJm8irPronLzB4OhwNBELK5g5kZJVMZfvbnM5bKuQH6s9ucZ/ZTVRW3252NRyqKMspJIsvyqDVf5qHP/HcmDJLZLghCNmUtJycHVVWzTWgz68CznU2apo20v3c4sNlspNNpYrFY9poy5z97fZpJbRMEgWAwiCzL5ObmkkqliEaj9Pf3EwgEiMVieDyebFV8pur7RjpLsvftSnYWRZHJU6bwxa9+lQH/EDuad+FOpbAZmYEa2Nz5eEqrRjLYbSpffeAultyxJPulAxd8q06dOoVAKIJ/bxtRwYHF5cHldjNzxnSCwSCiIDJn7mcYHBykt6cHl8uFx+PBarHQfuLkVQsukw3i8Xioqqq66BivFEmScLvduN1uiouLs30+LnXsTHLzlXAl+19NC4FMlfr1QpblKxqHw+G4Im/0uHHjRp3L5XJRXFw8qonvzeCKJS2KIlOmTOEv/up/0zB/HpI4+hdM1XSSaMBHZKifYMBPKp0+zwX/SRfrcDpQkjGGh/rBIjM4OIgkSThdLiKRCC6XE7vdjizJqKqK0+nE4XAQDAau/MovwOWM8Xqfx2RsudlNoa5qDpUtFionTuT2229HEgQM/Rz3MiNTfSQaYzgWuyxPooCAw27H0NIo6SSCZGNw0I+mqlgtFnz9/VhkmYKCfGx2G8lEAiWdxma1YrFYL3l8E5NPA1edgSrLMq4cFxgaBheKmRikUmkiw7Gs1+yiCOCw25DOJDYLFgtDQ0OEQiESsRgH9u2jtKwMQRSw2eyoxeMIhULEYnGm1E272sswMRlTrlpwoijisNlRomE00YYhiQjnHE7RdfxDQWLR6CXtdUEQsdpsI1OuYSDIFro6O9l4pqCz7eRJNEUlz5PHxKqJeAu8nGhrwwBmzZp5tZdhYjKmXNMMN37CeMYX5nKi4wRpwYbF40WyuxDlkcwPQbIwGAgQDocvWa8miiJWiwVRTaIEB9CTMWx5DmonTaZ+Xj12u52Dhw7R191DdDhGODxMXn4Bi29ffFW5lCYmN4OrFpwkSUyZOpVvfetbNDc30dy8i5aTp1BkO3KOB8kxkmkxMDhEIBii+hLHEwQBu9VKcZ6LAlclO5ubuftzD/DAQw8yYcIERFFkal0dsWgURVEQRBGH3U6O231VqV0mJjeDa6oizMnJ4dbbbmXO3DmsWLGCbdu28f77v6W17SRJAySLlY6Yj8DQxTPl4YyJ6nRQN2UyddPq6OnsYO7cz1BUWJSNj7hcLvMHIUx+r7nmsl1JksjNzWXa9OnU1NayYuVK2lpb2bd3L51d3bQcPcKAbwBV05Av0afDYrFgtdvJzcujuqaaWCyGoiqf+BkTk983rludvCAI2O12ysvLKSkpYcHChcTjcf7fL37BoH+QYCBwXm3V2UhnGtQYuo6AQG1NDT09I52Hb3QnJROTseK657JkaqmcTicFBQXUTZtGJBKht7f34gMRhJHUME1DURRkq5WAfwglbc5wJn843NDksZHE12lEh6N0dHRcNAAuiCKSJNLb08PPf/EL3nt3LQVe76e+Q5SJyZVwQ1svCYJAdXU1doeD7s4uwqEw7lz3+ek1hpFdq8kWC3a7nf/913/NwkW3mOakyR8UN7zXmd1hZ9q0aTQ3NfHrX6+htnYSRUWF5JzJRNc1jUQ8jt/v5+TJkwwPDzOvoYHl99w9JtnbJiZjyZg0F2yY30BnRwdNO5po3tE00jdCkrBYRxoEpdNpNFUjraQpKhrHnLlzzQRfkz9Irqge7mrRdZ14PM7Q0BB9vX0EAkMMDw9na7ZsNhuevDwKvN4zNXOFZjDb5A+SMRGciYnJCOYiycRkDDEFZ2IyhpiCMzEZQ0zBmZiMIabgTEzGEFNwJiZjiCk4E5MxxBScickYYgrOxGQMMQVnYjKG/H9KArj+n4CCogAAAABJRU5ErkJggg==;" vertex="1" parent="1">
          <mxGeometry x="260" y="140" width="122.22" height="50" as="geometry" />
        </mxCell>
        <mxCell id="CVcsU5q7l-2o3ZHZ9_AM-4" value="" style="dashed=0;outlineConnect=0;html=1;align=center;labelPosition=center;verticalLabelPosition=bottom;verticalAlign=top;shape=mxgraph.webicons.github;fillColor=#d80073;fontColor=#ffffff;strokeColor=#A50040;" vertex="1" parent="1">
          <mxGeometry y="123.5" width="90" height="80" as="geometry" />
        </mxCell>
        <mxCell id="CVcsU5q7l-2o3ZHZ9_AM-7" value="" style="image;sketch=0;aspect=fixed;html=1;points=[];align=center;fontSize=12;image=img/lib/mscae/Docker.svg;" vertex="1" parent="1">
          <mxGeometry x="529.02" y="189.99999999999997" width="90.98" height="74.6" as="geometry" />
        </mxCell>
        <mxCell id="CVcsU5q7l-2o3ZHZ9_AM-8" value="" style="endArrow=classic;html=1;rounded=0;entryX=0;entryY=0.5;entryDx=0;entryDy=0;strokeWidth=3;" edge="1" parent="1" source="CVcsU5q7l-2o3ZHZ9_AM-4" target="CVcsU5q7l-2o3ZHZ9_AM-3">
          <mxGeometry width="50" height="50" relative="1" as="geometry">
            <mxPoint x="520" y="450" as="sourcePoint" />
            <mxPoint x="570" y="400" as="targetPoint" />
          </mxGeometry>
        </mxCell>
        <mxCell id="CVcsU5q7l-2o3ZHZ9_AM-9" value="" style="ellipse;whiteSpace=wrap;html=1;fillColor=#1ba1e2;fontColor=#ffffff;strokeColor=#006EAF;" vertex="1" parent="1">
          <mxGeometry x="260" y="220" width="120" height="80" as="geometry" />
        </mxCell>
        <mxCell id="CVcsU5q7l-2o3ZHZ9_AM-10" value="&lt;font style=&quot;font-size: 20px;&quot;&gt;Build&lt;/font&gt;" style="text;html=1;align=center;verticalAlign=middle;whiteSpace=wrap;rounded=0;" vertex="1" parent="1">
          <mxGeometry x="290" y="245" width="60" height="30" as="geometry" />
        </mxCell>
        <mxCell id="CVcsU5q7l-2o3ZHZ9_AM-11" value="" style="ellipse;whiteSpace=wrap;html=1;fillColor=#a20025;fontColor=#ffffff;strokeColor=#6F0000;" vertex="1" parent="1">
          <mxGeometry x="260" y="315" width="120" height="80" as="geometry" />
        </mxCell>
        <mxCell id="CVcsU5q7l-2o3ZHZ9_AM-12" value="&lt;font style=&quot;color: light-dark(rgb(0, 0, 0), rgb(26, 26, 26)); font-size: 20px;&quot;&gt;Push&lt;/font&gt;" style="text;html=1;align=center;verticalAlign=middle;whiteSpace=wrap;rounded=0;" vertex="1" parent="1">
          <mxGeometry x="291.11" y="340" width="60" height="30" as="geometry" />
        </mxCell>
        <mxCell id="CVcsU5q7l-2o3ZHZ9_AM-13" value="" style="ellipse;whiteSpace=wrap;html=1;fillColor=#008a00;fontColor=#ffffff;strokeColor=#005700;" vertex="1" parent="1">
          <mxGeometry x="260" y="405" width="120" height="80" as="geometry" />
        </mxCell>
        <mxCell id="CVcsU5q7l-2o3ZHZ9_AM-14" value="&lt;font style=&quot;font-size: 20px;&quot;&gt;Run&lt;/font&gt;" style="text;html=1;align=center;verticalAlign=middle;whiteSpace=wrap;rounded=0;" vertex="1" parent="1">
          <mxGeometry x="290" y="430" width="60" height="30" as="geometry" />
        </mxCell>
        <mxCell id="CVcsU5q7l-2o3ZHZ9_AM-16" value="" style="rounded=0;whiteSpace=wrap;html=1;fillColor=none;dashed=1;dashPattern=12 12;strokeWidth=3;" vertex="1" parent="1">
          <mxGeometry x="210" y="66.5" width="210" height="443.5" as="geometry" />
        </mxCell>
        <mxCell id="CVcsU5q7l-2o3ZHZ9_AM-18" value="&lt;font style=&quot;font-size: 18px;&quot;&gt;github repository&lt;/font&gt;" style="text;html=1;align=center;verticalAlign=middle;whiteSpace=wrap;rounded=0;" vertex="1" parent="1">
          <mxGeometry x="10" y="215" width="60" height="30" as="geometry" />
        </mxCell>
        <mxCell id="CVcsU5q7l-2o3ZHZ9_AM-19" value="&lt;font style=&quot;font-size: 16px;&quot;&gt;Trigger&lt;/font&gt;" style="text;html=1;align=center;verticalAlign=middle;whiteSpace=wrap;rounded=0;" vertex="1" parent="1">
          <mxGeometry x="110" y="123.5" width="60" height="30" as="geometry" />
        </mxCell>
        <mxCell id="CVcsU5q7l-2o3ZHZ9_AM-20" value="&lt;font style=&quot;font-size: 16px;&quot;&gt;DockerHUB&lt;/font&gt;" style="text;html=1;align=center;verticalAlign=middle;whiteSpace=wrap;rounded=0;" vertex="1" parent="1">
          <mxGeometry x="544.51" y="160" width="60" height="30" as="geometry" />
        </mxCell>
        <mxCell id="CVcsU5q7l-2o3ZHZ9_AM-22" value="" style="endArrow=classic;html=1;rounded=0;entryX=-0.011;entryY=0.563;entryDx=0;entryDy=0;entryPerimeter=0;strokeWidth=2;" edge="1" parent="1" target="CVcsU5q7l-2o3ZHZ9_AM-7">
          <mxGeometry width="50" height="50" relative="1" as="geometry">
            <mxPoint x="380" y="350" as="sourcePoint" />
            <mxPoint x="430" y="300" as="targetPoint" />
            <Array as="points">
              <mxPoint x="470" y="350" />
              <mxPoint x="470" y="232" />
            </Array>
          </mxGeometry>
        </mxCell>
        <mxCell id="CVcsU5q7l-2o3ZHZ9_AM-23" value="" style="endArrow=classic;html=1;rounded=0;entryX=0;entryY=0.5;entryDx=0;entryDy=0;entryPerimeter=0;strokeWidth=2;" edge="1" parent="1" target="CVcsU5q7l-2o3ZHZ9_AM-1">
          <mxGeometry width="50" height="50" relative="1" as="geometry">
            <mxPoint x="380" y="440" as="sourcePoint" />
            <mxPoint x="430" y="400" as="targetPoint" />
          </mxGeometry>
        </mxCell>
        <mxCell id="CVcsU5q7l-2o3ZHZ9_AM-25" value="" style="endArrow=classic;startArrow=none;html=1;rounded=0;exitX=0.461;exitY=0.965;exitDx=0;exitDy=0;exitPerimeter=0;strokeWidth=3;startFill=0;endFill=1;" edge="1" parent="1" source="CVcsU5q7l-2o3ZHZ9_AM-7">
          <mxGeometry width="50" height="50" relative="1" as="geometry">
            <mxPoint x="520" y="450" as="sourcePoint" />
            <mxPoint x="570" y="400" as="targetPoint" />
          </mxGeometry>
        </mxCell>
        <mxCell id="CVcsU5q7l-2o3ZHZ9_AM-26" value="&lt;font style=&quot;font-size: 15px;&quot;&gt;docker &lt;/font&gt;&lt;font style=&quot;font-size: 15px;&quot;&gt;pull&lt;/font&gt;" style="text;html=1;align=center;verticalAlign=middle;whiteSpace=wrap;rounded=0;" vertex="1" parent="1">
          <mxGeometry x="580" y="315" width="90" height="30" as="geometry" />
        </mxCell>
      </root>
    </mxGraphModel>
  </diagram>
</mxfile>
